<svg id="svglien" data-name="svglien" xmlns="http://www.w3.org/2000/svg" viewBox="0 0 281 281"><title>lien externe</title><path d="M271,1.7l-145.4.8a16.22,16.22,0,0,0-16.1,16.1v.2a15.79,15.79,0,0,0,16,15.7L228.6,34,182.1,80.5H13a10.47,10.47,0,0,0-7.4,3.2A10.62,10.62,0,0,0,1.4,92V268.5c0,7.3,5.2,13.3,11.6,13.3H189.4c6.4,0,11.6-6,11.6-13.3V103.8L249.8,55l-.6,103.2v.2a15.83,15.83,0,0,0,15.9,15.7A16.22,16.22,0,0,0,281.2,158L282,12.7v-.2A10.74,10.74,0,0,0,271,1.7ZM171.1,252H31.2V110.3H152.3l-40.8,40.8a13.28,13.28,0,0,0,0,18.8l2.3,2.3a13.28,13.28,0,0,0,18.8,0l38.6-38.6V252Z" transform="translate(-1.4 -1.7)" style="fill:#60c6f2"/></svg>
