<?xml version="1.0" encoding="utf-8"?>
<!-- Generator: Adobe Illustrator 25.1.0, SVG Export Plug-In . SVG Version: 6.00 Build 0)  -->
<svg version="1.1" id="Calque_1" xmlns="http://www.w3.org/2000/svg" xmlns:xlink="http://www.w3.org/1999/xlink" x="0px" y="0px"
	 viewBox="0 0 80 80" style="enable-background:new 0 0 80 80;" xml:space="preserve">
<style type="text/css">
	.st0{fill:#60C6F2;}
	.st1{fill:#17323F;}
	.st2{fill:#FFFFFF;}
</style>
<g>
	<circle class="st1" cx="40" cy="40" r="40"/>
	<g>
		<g>
			<g id="Groupe_81_1_" transform="translate(88.112 261.327)">
				<path id="Tracé_240_1_" class="st2" d="M-63.7-227.8L-63.7-227.8l-5.2-10.4h-5.2v15.3h3.7l-0.1-10.5h0l5.4,10.5h5.1v-15.3h-3.7
					L-63.7-227.8z"/>
				<path id="Tracé_241_1_" class="st2" d="M-35.4-234.4c-0.4-0.1-0.9-0.1-1.3-0.1c-1.7,0-2.7,0.9-3.4,2.4h0v-2.1h-3.6v11.4h4v-4.8
					c0-2.2,1-3.6,2.9-3.6c0.5,0,0.9,0,1.3,0.1L-35.4-234.4z"/>
				<path id="Tracé_242_1_" class="st2" d="M-26-239.3v6.5h0c-1-1.3-2.3-1.7-3.9-1.7c-3.2,0-4.9,3-4.9,5.8c0,3.4,1.8,6.2,5.2,6.2
					c1.8,0,3.4-1,3.9-2.3h0v2h3.6v-16.4L-26-239.3L-26-239.3z M-28.4-225.6c-1.5,0-2.4-1.2-2.4-3.1c0-1.5,0.9-2.8,2.4-2.8
					c1.4,0,2.4,1.2,2.4,3C-26-226.9-27.1-225.6-28.4-225.6z"/>
				<path id="Tracé_243_1_" class="st2" d="M-51.9-234.5c-3.8,0-6.6,2.2-6.6,6c0,3.8,2.9,6,6.6,6c3.8,0,6.6-2.2,6.6-6
					S-48.1-234.5-51.9-234.5z M-51.9-225.3c-1.8,0-2.6-1.5-2.6-3.2c0-1.7,0.7-3.2,2.6-3.2c1.8,0,2.6,1.5,2.6,3.2
					C-49.3-226.9-50.1-225.3-51.9-225.3L-51.9-225.3z"/>
			</g>
			<path id="Tracé_263_1_" class="st0" d="M26.2,55.7V55c-0.3,0.3-0.7,0.4-1.1,0.5c-0.4,0-0.5-0.2-0.5-0.6c0-0.9,1.4-6,1.4-7.1
				c0-1.1-0.6-1.9-1.9-1.9c-0.8,0-1.6,0.4-2.3,0.9v0.7c0.3-0.3,0.7-0.5,1.1-0.5c0.4,0,0.5,0.2,0.5,0.6c0,0.9-1.4,6.1-1.4,7.1
				c0,1.1,0.6,1.8,1.9,1.8C24.8,56.6,25.6,56.3,26.2,55.7z M24,43c-0.1,0.7,0.4,1.3,1.1,1.4c0.1,0,0.1,0,0.2,0
				c0.8,0,1.5-0.6,1.6-1.4c0.1-0.7-0.4-1.3-1.1-1.4c-0.1,0-0.1,0-0.2,0C24.8,41.6,24.1,42.2,24,43z M39.1,55.7l0-0.7
				c-0.3,0.3-0.7,0.5-1.1,0.5c-0.3,0-0.5-0.2-0.5-0.6c0-0.8,1.1-4.8,1.1-6.1c0-1.6-0.7-2.9-2.6-2.9c-1.4,0-2.8,0.9-3.7,2.4
				c0.1-1.5-0.6-2.3-1.8-2.3c-0.9,0-1.7,0.4-2.3,0.9l0,0.7c0.3-0.3,0.7-0.5,1.1-0.5c0.4,0,0.5,0.5,0.4,1.1l-1.5,8.3h2.6l0.8-4.6
				c0.5-3,2.3-4.4,3.2-4.4c0.7,0,1.2,0.4,1.2,1.4c0,1.3-1.1,4.8-1.1,6c0,1,0.6,1.9,1.9,1.9C37.7,56.6,38.5,56.3,39.1,55.7z M49.5,43
				c0-0.8-0.9-1.4-2-1.4c-2.4,0-4,1.7-4.7,4.6h-1.6l-0.2,1h1.6l-1.7,9.8c-0.3,1.9-0.2,3.1-1.2,3.1c-0.4,0-0.5-0.3-0.6-0.6
				c-0.1-0.4-0.4-0.8-0.9-0.8c-0.6,0-1.2,0.5-1.2,1.1c0,0,0,0.1,0,0.1c0,0.8,0.9,1.4,2,1.4c2.2,0,4.2-1.8,5-6.4l1.4-7.7h2.1l0.2-1
				h-2.1l0.1-0.5c0.3-2,0.2-3,1.2-3c0.4,0,0.5,0.4,0.7,0.8c0.1,0.4,0.5,0.7,0.9,0.7C48.9,44.2,49.4,43.7,49.5,43
				C49.5,43,49.5,43,49.5,43z M58,51.2c0.5-3-1.5-5.6-4.3-5.6c-3.1,0-5.6,2.6-6.1,5.6c-0.5,3,1.5,5.6,4.4,5.6
				C55,56.8,57.5,54.2,58,51.2z M55.1,51.2c-0.5,2.8-1.5,4.5-3.1,4.5c-1.5,0-2.1-1.7-1.6-4.5c0.5-2.7,1.5-4.5,3.1-4.5
				C55.1,46.8,55.6,48.5,55.1,51.2z"/>
		</g>
	</g>
</g>
</svg>
